<svg width="84" height="80" viewBox="0 0 84 80" xmlns="http://www.w3.org/2000/svg">
<path d="M73.7653 79.9982C73.4244 79.9982 73.0836 79.8973 72.7879 79.6991L60.8682 71.588L48.9484 79.6991C48.3537 80.106 47.5676 80.0991 46.9728 79.6852C46.3815 79.2713 46.1068 78.5339 46.2842 77.8348L49.9745 63.2682L38.8721 53.7866C38.333 53.324 38.1278 52.5797 38.3539 51.9084C38.58 51.2371 39.1921 50.7676 39.9017 50.7293L54.1031 49.9258L59.2404 35.9261C59.7447 34.5557 62.0021 34.5557 62.5029 35.9261L67.6402 49.9258L81.8416 50.7293C82.5512 50.7676 83.1633 51.2371 83.3894 51.9084C83.6155 52.5797 83.4103 53.324 82.8712 53.7866L71.7688 63.2682L75.4592 77.8348C75.6365 78.5339 75.3618 79.2713 74.7705 79.6852C74.4644 79.8939 74.1166 79.9982 73.7653 79.9982ZM60.8682 67.7446C61.209 67.7446 61.5499 67.8454 61.8455 68.0437L70.9549 74.2418L68.1271 63.0734C67.9671 62.4334 68.1828 61.7551 68.6837 61.3238L77.313 53.9536L66.2976 53.3275C65.6055 53.2892 65.0003 52.8406 64.7637 52.1901L60.8682 41.5678L56.9726 52.1901C56.7361 52.8406 56.1309 53.2858 55.4387 53.3275L44.4233 53.9536L53.0527 61.3238C53.557 61.7551 53.7727 62.4334 53.6092 63.0734L50.7815 74.2418L59.8908 68.0437C60.1865 67.842 60.5273 67.7446 60.8682 67.7446Z" />
<path d="M39.9991 66.0855H1.73909C0.779113 66.0855 0 65.3064 0 64.3464V50.4336C0 43.7208 5.46075 38.26 12.1736 38.26H46.9555C47.9155 38.26 48.6946 39.0391 48.6946 39.9991C48.6946 40.9591 47.9155 41.7382 46.9555 41.7382H12.1736C7.38071 41.7382 3.47818 45.6407 3.47818 50.4336V62.6073H39.9991C40.9591 62.6073 41.7382 63.3864 41.7382 64.3464C41.7382 65.3064 40.9591 66.0855 39.9991 66.0855Z" />
<path d="M27.8255 31.3036C19.1962 31.3036 12.1737 24.2812 12.1737 15.6518C12.1737 7.02245 19.1962 0 27.8255 0C36.4549 0 43.4774 7.02245 43.4774 15.6518C43.4774 24.2812 36.4549 31.3036 27.8255 31.3036ZM27.8255 3.47818C21.1126 3.47818 15.6519 8.93893 15.6519 15.6518C15.6519 22.3647 21.1126 27.8255 27.8255 27.8255C34.5384 27.8255 39.9992 22.3647 39.9992 15.6518C39.9992 8.93893 34.5384 3.47818 27.8255 3.47818Z" />
<path d="M39.6444 15.944C35.5054 15.944 32.5245 13.1336 30.9837 11.2415C24.2186 16.4414 16.2293 15.9649 13.8084 15.6727C12.8554 15.5579 12.1772 14.6918 12.292 13.7388C12.4102 12.7858 13.2624 12.1075 14.2293 12.2223C16.4553 12.4901 24.1873 12.9458 30.1176 7.42244C30.5072 7.0607 31.0498 6.90766 31.5576 6.97723C32.0793 7.05375 32.5419 7.36678 32.8063 7.82243C32.9419 8.05546 36.2184 13.544 41.1991 12.2606C42.1382 12.031 43.0808 12.5841 43.3174 13.5127C43.5573 14.4449 42.9974 15.391 42.0652 15.6309C41.2235 15.8501 40.4131 15.944 39.6444 15.944Z" />
</svg>
