<svg width="65" height="66" viewBox="0 0 65 66" xmlns="http://www.w3.org/2000/svg">
<path d="M39.9991 65.8255H1.73909C0.779113 65.8255 0 65.0463 0 64.0864V50.1736C0 43.4607 5.46075 38 12.1736 38H46.9555C47.9155 38 48.6946 38.7791 48.6946 39.7391C48.6946 40.6991 47.9155 41.4782 46.9555 41.4782H12.1736C7.38071 41.4782 3.47818 45.3807 3.47818 50.1736V62.3473H39.9991C40.9591 62.3473 41.7382 63.1264 41.7382 64.0864C41.7382 65.0463 40.9591 65.8255 39.9991 65.8255Z" />
<path d="M32.8402 65.8255H62.9374C63.6925 65.8255 64.3054 65.0463 64.3054 64.0864V50.1736C64.3054 43.4607 60.0097 38 54.7291 38H27.368C26.6129 38 26 38.7791 26 39.7391C26 40.6991 26.6129 41.4782 27.368 41.4782H54.7291C58.4994 41.4782 61.5693 45.3807 61.5693 50.1736V62.3473H32.8402C32.0851 62.3473 31.4722 63.1264 31.4722 64.0864C31.4722 65.0463 32.0851 65.8255 32.8402 65.8255Z" />
<path d="M31.8255 31.3036C23.1962 31.3036 16.1737 24.2812 16.1737 15.6518C16.1737 7.02245 23.1962 0 31.8255 0C40.4549 0 47.4774 7.02245 47.4774 15.6518C47.4774 24.2812 40.4549 31.3036 31.8255 31.3036ZM31.8255 3.47818C25.1126 3.47818 19.6519 8.93893 19.6519 15.6518C19.6519 22.3647 25.1126 27.8255 31.8255 27.8255C38.5384 27.8255 43.9992 22.3647 43.9992 15.6518C43.9992 8.93893 38.5384 3.47818 31.8255 3.47818Z" />
<path d="M43.6444 15.944C39.5054 15.944 36.5245 13.1336 34.9837 11.2415C28.2186 16.4414 20.2293 15.9649 17.8084 15.6727C16.8554 15.5579 16.1772 14.6918 16.292 13.7388C16.4102 12.7858 17.2624 12.1075 18.2293 12.2223C20.4553 12.4901 28.1873 12.9458 34.1176 7.42244C34.5072 7.0607 35.0498 6.90766 35.5576 6.97723C36.0793 7.05375 36.5419 7.36678 36.8063 7.82243C36.9419 8.05546 40.2184 13.544 45.1991 12.2606C46.1382 12.031 47.0808 12.5841 47.3174 13.5127C47.5573 14.4449 46.9974 15.391 46.0652 15.6309C45.2235 15.8501 44.4131 15.944 43.6444 15.944Z" />
</svg>
