<svg width="64" height="64" viewBox="0 0 64 64" fill="none" xmlns="http://www.w3.org/2000/svg">
<path d="M23.7714 0C30.076 0 36.1224 2.50448 40.5804 6.96249C45.0384 11.4205 47.5429 17.4669 47.5429 23.7714C47.5429 29.6594 45.3851 35.072 41.8377 39.2411L42.8251 40.2286H45.7143L64 58.5143L58.5143 64L40.2286 45.7143V42.8251L39.2411 41.8377C35.072 45.3851 29.6594 47.5429 23.7714 47.5429C17.4669 47.5429 11.4205 45.0384 6.96249 40.5804C2.50448 36.1224 0 30.076 0 23.7714C0 17.4669 2.50448 11.4205 6.96249 6.96249C11.4205 2.50448 17.4669 0 23.7714 0V0ZM23.7714 7.31429C14.6286 7.31429 7.31429 14.6286 7.31429 23.7714C7.31429 32.9143 14.6286 40.2286 23.7714 40.2286C32.9143 40.2286 40.2286 32.9143 40.2286 23.7714C40.2286 14.6286 32.9143 7.31429 23.7714 7.31429Z" fill="black"/>
</svg>
